<svg width="19" height="19" viewBox="0 0 19 19" fill="none" xmlns="http://www.w3.org/2000/svg">
<path d="M8.54969 0.888595C8.8512 -0.0281801 10.1481 -0.0281806 10.4496 0.888594L12.188 6.17433C12.2872 6.47602 12.5238 6.71264 12.8255 6.81186L18.1112 8.55024C19.028 8.85175 19.028 10.1486 18.1112 10.4501L12.8255 12.1885C12.5238 12.2877 12.2872 12.5243 12.188 12.826L10.4496 18.1118C10.1481 19.0285 8.8512 19.0285 8.54969 18.1118L6.81131 12.826C6.71209 12.5243 6.47547 12.2877 6.17378 12.1885L0.888045 10.4501C-0.0287294 10.1486 -0.0287299 8.85175 0.888045 8.55024L6.17378 6.81186C6.47547 6.71264 6.71209 6.47602 6.81131 6.17433L8.54969 0.888595Z" fill="#2BB32A"/>
</svg>
