<svg width="28" height="28" viewBox="0 0 28 28" fill="none" xmlns="http://www.w3.org/2000/svg">
<path d="M13.0504 0.888652C13.3519 -0.0281228 14.6488 -0.0281193 14.9503 0.888655L17.8024 9.5607C17.9016 9.86239 18.1382 10.099 18.4399 10.1982L27.112 13.0503C28.0287 13.3518 28.0287 14.6487 27.112 14.9502L18.4399 17.8023C18.1382 17.9015 17.9016 18.1381 17.8024 18.4398L14.9503 27.1118C14.6488 28.0286 13.3519 28.0286 13.0504 27.1118L10.1983 18.4398C10.0991 18.1381 9.86251 17.9015 9.56082 17.8023L0.888774 14.9502C-0.0280007 14.6487 -0.0279973 13.3518 0.888777 13.0503L9.56082 10.1982C9.86251 10.099 10.0991 9.86239 10.1983 9.5607L13.0504 0.888652Z" fill="#2BB32A"/>
</svg>
