<svg width="20" height="20" viewBox="0 0 20 20" fill="none" xmlns="http://www.w3.org/2000/svg">
<path d="M12.422 1.16522C13.0358 0.420465 14.2441 0.89131 14.1922 1.855L13.8716 7.80671C13.8545 8.12383 13.9891 8.43022 14.2342 8.6322L18.8338 12.4229C19.5785 13.0367 19.1077 14.2451 18.144 14.1932L12.1923 13.8726C11.8751 13.8555 11.5688 13.9901 11.3668 14.2351L7.57607 18.8347C6.96228 19.5795 5.75391 19.1086 5.80582 18.1449L6.12641 12.1932C6.14349 11.8761 6.00893 11.5697 5.76385 11.3677L1.16427 7.57701C0.419519 6.96323 0.890363 5.75485 1.85405 5.80676L7.80576 6.12736C8.12289 6.14444 8.42927 6.00987 8.63125 5.7648L12.422 1.16522Z" fill="#2BB32A"/>
</svg>
