<svg width="40" height="44" viewBox="0 0 40 44" fill="none" xmlns="http://www.w3.org/2000/svg">
<path d="M24.4992 0.491767C25.0104 -0.370193 26.3307 -0.0279772 26.3589 0.973791L26.798 16.5947C26.8069 16.9108 26.9647 17.204 27.2237 17.3855L39.0942 25.7045C39.8518 26.2354 39.5442 27.4219 38.6241 27.518L24.2072 29.0234C23.8927 29.0562 23.6122 29.2359 23.4509 29.5079L15.4791 42.9486C14.9679 43.8106 13.6476 43.4684 13.6194 42.4666L13.1803 26.8457C13.1714 26.5297 13.0136 26.2364 12.7546 26.0549L0.884106 17.7359C0.126523 17.205 0.434061 16.0185 1.35416 15.9224L15.7711 14.417C16.0856 14.3842 16.3661 14.2045 16.5274 13.9326L24.4992 0.491767Z" fill="#2BB32A"/>
</svg>
