<svg width="30" height="30" viewBox="0 0 30 30" fill="none" xmlns="http://www.w3.org/2000/svg">
<path d="M24.2685 0.591862C25.0509 0.0268595 26.1007 0.788416 25.8064 1.70753L22.0561 13.4194C21.9593 13.7219 22.0118 14.0523 22.1978 14.3098L29.3974 24.2797C29.9624 25.0621 29.2008 26.1118 28.2817 25.8175L16.5698 22.0673C16.2674 21.9704 15.9369 22.023 15.6794 22.2089L5.70956 29.4085C4.92716 29.9735 3.87744 29.212 4.17175 28.2928L7.92198 16.581C8.01883 16.2785 7.96625 15.948 7.78032 15.6906L0.580723 5.7207C0.0157201 4.93829 0.777277 3.88858 1.69639 4.18289L13.4083 7.93312C13.7107 8.02997 14.0412 7.97739 14.2987 7.79146L24.2685 0.591862Z" fill="#2BB32A"/>
</svg>
