<svg width="20" height="19" viewBox="0 0 20 19" fill="none" xmlns="http://www.w3.org/2000/svg">
<path d="M5.62294 1.42368C5.54928 0.461412 6.74672 -0.0365914 7.37716 0.694114L11.2708 5.20694C11.4782 5.4474 11.7876 5.57501 12.1042 5.55078L18.0472 5.0959C19.0094 5.02225 19.5074 6.21969 18.7767 6.85013L14.2639 10.7437C14.0235 10.9512 13.8958 11.2605 13.9201 11.5772L14.375 17.5201C14.4486 18.4824 13.2512 18.9804 12.6207 18.2497L8.72714 13.7369C8.51968 13.4964 8.21033 13.3688 7.89368 13.393L1.95072 13.8479C0.988448 13.9216 0.490445 12.7241 1.22115 12.0937L5.73398 8.2001C5.97444 7.99264 6.10205 7.6833 6.07781 7.36664L5.62294 1.42368Z" fill="#2BB32A"/>
</svg>
