<svg width="46" height="46" viewBox="0 0 46 46" fill="none" xmlns="http://www.w3.org/2000/svg">
<path d="M10.3018 1.30855C10.1351 0.35799 11.2785 -0.253981 11.9769 0.412027L25.4632 13.2721C25.693 13.4913 26.0133 13.5883 26.3261 13.5334L44.6807 10.313C45.6313 10.1462 46.2433 11.2896 45.5773 11.9881L32.7172 25.4744C32.498 25.7042 32.401 26.0245 32.4559 26.3373L35.6763 44.6919C35.8431 45.6425 34.6997 46.2544 34.0012 45.5884L20.5149 32.7283C20.2851 32.5092 19.9648 32.4122 19.652 32.4671L1.29739 35.6874C0.346829 35.8542 -0.265142 34.7108 0.400867 34.0124L13.261 20.5261C13.4801 20.2962 13.5771 19.976 13.5222 19.6632L10.3018 1.30855Z" fill="#2BB32A"/>
</svg>
