<svg width="121" height="26" viewBox="0 0 121 26" fill="none" xmlns="http://www.w3.org/2000/svg">
<path fill-rule="evenodd" clip-rule="evenodd" d="M0 19.2V4.8C0 2.14903 2.14903 0 4.8 0H19.2V4.8H24V19.2C24 21.851 21.851 24 19.2 24H4.8V19.2H0ZM16.8 7.2H7.2V16.8H16.8V7.2Z" fill="#2BB32A"/>
<path d="M44.44 21.2C42.84 21.2 41.4667 20.9067 40.32 20.32C39.1733 19.72 38.2933 18.86 37.68 17.74C37.08 16.62 36.78 15.2733 36.78 13.7C36.78 12.1267 37.08 10.78 37.68 9.66C38.2933 8.54 39.1733 7.68667 40.32 7.1C41.4667 6.5 42.84 6.2 44.44 6.2C46.2667 6.2 47.8867 6.59333 49.3 7.38L48.66 9.82C47.2867 9.04667 45.92 8.66 44.56 8.66C43.5467 8.66 42.6733 8.86 41.94 9.26C41.2067 9.66 40.6467 10.24 40.26 11C39.8733 11.7467 39.68 12.6467 39.68 13.7C39.68 14.74 39.8733 15.64 40.26 16.4C40.6467 17.16 41.2067 17.74 41.94 18.14C42.6733 18.54 43.5467 18.74 44.56 18.74C45.8933 18.74 47.26 18.3533 48.66 17.58L49.3 20.02C47.8867 20.8067 46.2667 21.2 44.44 21.2ZM50.9987 21V10.6H53.6387L53.6587 12.54H53.7187C54.0654 12.0733 54.4721 11.6867 54.9387 11.38C55.4187 11.06 55.9387 10.82 56.4987 10.66C57.0721 10.4867 57.6588 10.4 58.2587 10.4V12.74C57.4321 12.74 56.6787 12.8933 55.9987 13.2C55.3187 13.5067 54.7787 13.9267 54.3787 14.46C53.9787 14.98 53.7787 15.56 53.7787 16.2V21H50.9987ZM60.7375 25.2L62.4575 20.94L58.3575 10.62L61.2975 10.6L63.8175 18.3H63.8575L66.3975 10.6H69.3575L63.6375 25.2H60.7375ZM76.2494 10.4C77.6227 10.4 78.6894 10.8733 79.4494 11.82C80.2094 12.7667 80.5894 14.0933 80.5894 15.8C80.5894 17.5067 80.2094 18.8333 79.4494 19.78C78.6894 20.7267 77.6227 21.2 76.2494 21.2C75.5827 21.2 74.9694 21.08 74.4094 20.84C73.8627 20.6 73.3894 20.2467 72.9894 19.78H72.9494V25.2H70.1894V10.6H72.8094L72.8294 11.82H72.8694C73.296 11.34 73.796 10.9867 74.3694 10.76C74.9427 10.52 75.5694 10.4 76.2494 10.4ZM75.4294 12.6C74.9627 12.6 74.536 12.7 74.1494 12.9C73.776 13.1 73.4827 13.3733 73.2694 13.72C73.056 14.0533 72.9494 14.44 72.9494 14.88V16.72C72.9494 17.16 73.056 17.5533 73.2694 17.9C73.4827 18.2333 73.776 18.5 74.1494 18.7C74.536 18.9 74.9627 19 75.4294 19C76.2294 19 76.8427 18.7267 77.2694 18.18C77.696 17.62 77.9094 16.8267 77.9094 15.8C77.9094 14.7733 77.696 13.9867 77.2694 13.44C76.8427 12.88 76.2294 12.6 75.4294 12.6ZM86.5559 21.2C85.3026 21.2 84.3959 20.9467 83.8359 20.44C83.2893 19.9333 83.0159 19.1 83.0159 17.94V12.74H80.7559V10.6H83.0159V7.2H85.7759V10.6H89.1559V12.74H85.7759V17.26C85.7759 17.8867 85.8759 18.3267 86.0759 18.58C86.2759 18.82 86.6359 18.94 87.1559 18.94C87.4359 18.94 87.7293 18.9133 88.0359 18.86C88.3559 18.8067 88.6493 18.7333 88.9159 18.64L89.1359 20.82C88.6826 20.9533 88.2493 21.0467 87.8359 21.1C87.4226 21.1667 86.9959 21.2 86.5559 21.2ZM94.2034 21.2C92.9768 21.2 92.0768 20.86 91.5034 20.18C90.9301 19.5 90.6434 18.44 90.6434 17V10.6H93.3834V16.46C93.3834 17.3267 93.5168 17.96 93.7834 18.36C94.0634 18.7467 94.5101 18.94 95.1234 18.94C95.5901 18.94 95.9968 18.8467 96.3434 18.66C96.7034 18.46 96.9834 18.1933 97.1834 17.86C97.3834 17.5267 97.4834 17.1467 97.4834 16.72V10.6H100.243V21H97.6234L97.5834 19.78H97.5434C97.1301 20.26 96.6501 20.62 96.1034 20.86C95.5568 21.0867 94.9234 21.2 94.2034 21.2ZM102.413 21V10.6H105.053L105.073 12.54H105.133C105.479 12.0733 105.886 11.6867 106.353 11.38C106.833 11.06 107.353 10.82 107.913 10.66C108.486 10.4867 109.073 10.4 109.673 10.4V12.74C108.846 12.74 108.093 12.8933 107.413 13.2C106.733 13.5067 106.193 13.9267 105.793 14.46C105.393 14.98 105.193 15.56 105.193 16.2V21H102.413ZM113.18 21.2C112.153 21.2 111.34 20.9133 110.74 20.34C110.153 19.7667 109.86 19 109.86 18.04C109.86 16.84 110.327 15.9133 111.26 15.26C112.207 14.6067 113.547 14.28 115.28 14.28H116.66C116.66 13.8133 116.6 13.4533 116.48 13.2C116.373 12.9467 116.18 12.7733 115.9 12.68C115.633 12.5733 115.247 12.52 114.74 12.52C114.073 12.52 113.38 12.5933 112.66 12.74C111.94 12.8733 111.26 13.0667 110.62 13.32L110.28 11.2C110.973 10.9467 111.74 10.7533 112.58 10.62C113.433 10.4733 114.28 10.4 115.12 10.4C116.187 10.4 117.027 10.5267 117.64 10.78C118.253 11.0333 118.7 11.46 118.98 12.06C119.26 12.6467 119.4 13.44 119.4 14.44V21H116.78L116.74 19.8H116.72C116.347 20.2267 115.833 20.5667 115.18 20.82C114.527 21.0733 113.86 21.2 113.18 21.2ZM114.18 19.12C114.647 19.12 115.067 19.04 115.44 18.88C115.813 18.72 116.107 18.5 116.32 18.22C116.547 17.9267 116.66 17.6067 116.66 17.26V16.08H115.68C114.6 16.08 113.793 16.22 113.26 16.5C112.727 16.7667 112.46 17.1867 112.46 17.76C112.46 18.1867 112.607 18.52 112.9 18.76C113.207 19 113.633 19.12 114.18 19.12Z" fill="white"/>
</svg>
