<svg width="109" height="26" viewBox="0 0 109 26" fill="none" xmlns="http://www.w3.org/2000/svg">
<path d="M10.5 12C10.5 16.6944 13.1944 20.5 8.5 20.5C3.80558 20.5 0 16.6944 0 12C0 7.30558 3.80558 3.5 8.5 3.5C13.1944 3.5 10.5 7.30558 10.5 12Z" fill="#89FF7E"/>
<path d="M31.7096 21.2C30.1096 21.2 28.7362 20.9067 27.5896 20.32C26.4429 19.72 25.5629 18.86 24.9496 17.74C24.3496 16.62 24.0496 15.2733 24.0496 13.7C24.0496 12.1267 24.3496 10.78 24.9496 9.66C25.5629 8.54 26.4429 7.68667 27.5896 7.1C28.7362 6.5 30.1096 6.2 31.7096 6.2C33.5362 6.2 35.1562 6.59333 36.5696 7.38L35.9296 9.82C34.5562 9.04667 33.1896 8.66 31.8296 8.66C30.8162 8.66 29.9429 8.86 29.2096 9.26C28.4762 9.66 27.9162 10.24 27.5296 11C27.1429 11.7467 26.9496 12.6467 26.9496 13.7C26.9496 14.74 27.1429 15.64 27.5296 16.4C27.9162 17.16 28.4762 17.74 29.2096 18.14C29.9429 18.54 30.8162 18.74 31.8296 18.74C33.1629 18.74 34.5296 18.3533 35.9296 17.58L36.5696 20.02C35.1562 20.8067 33.5362 21.2 31.7096 21.2ZM38.2683 21V10.6H40.9083L40.9283 12.54H40.9883C41.335 12.0733 41.7417 11.6867 42.2083 11.38C42.6883 11.06 43.2083 10.82 43.7683 10.66C44.3417 10.4867 44.9283 10.4 45.5283 10.4V12.74C44.7017 12.74 43.9483 12.8933 43.2683 13.2C42.5883 13.5067 42.0483 13.9267 41.6483 14.46C41.2483 14.98 41.0483 15.56 41.0483 16.2V21H38.2683ZM48.0071 25.2L49.7271 20.94L45.6271 10.62L48.5671 10.6L51.0871 18.3H51.1271L53.6671 10.6H56.6271L50.9071 25.2H48.0071ZM63.519 10.4C64.8923 10.4 65.959 10.8733 66.719 11.82C67.479 12.7667 67.859 14.0933 67.859 15.8C67.859 17.5067 67.479 18.8333 66.719 19.78C65.959 20.7267 64.8923 21.2 63.519 21.2C62.8523 21.2 62.239 21.08 61.679 20.84C61.1323 20.6 60.659 20.2467 60.259 19.78H60.219V25.2H57.459V10.6H60.079L60.099 11.82H60.139C60.5656 11.34 61.0656 10.9867 61.639 10.76C62.2123 10.52 62.839 10.4 63.519 10.4ZM62.699 12.6C62.2323 12.6 61.8056 12.7 61.419 12.9C61.0456 13.1 60.7523 13.3733 60.539 13.72C60.3256 14.0533 60.219 14.44 60.219 14.88V16.72C60.219 17.16 60.3256 17.5533 60.539 17.9C60.7523 18.2333 61.0456 18.5 61.419 18.7C61.8056 18.9 62.2323 19 62.699 19C63.499 19 64.1123 18.7267 64.539 18.18C64.9656 17.62 65.179 16.8267 65.179 15.8C65.179 14.7733 64.9656 13.9867 64.539 13.44C64.1123 12.88 63.499 12.6 62.699 12.6ZM73.8255 21.2C72.5722 21.2 71.6655 20.9467 71.1055 20.44C70.5588 19.9333 70.2855 19.1 70.2855 17.94V12.74H68.0255V10.6H70.2855V7.2H73.0455V10.6H76.4255V12.74H73.0455V17.26C73.0455 17.8867 73.1455 18.3267 73.3455 18.58C73.5455 18.82 73.9055 18.94 74.4255 18.94C74.7055 18.94 74.9988 18.9133 75.3055 18.86C75.6255 18.8067 75.9188 18.7333 76.1855 18.64L76.4055 20.82C75.9522 20.9533 75.5188 21.0467 75.1055 21.1C74.6922 21.1667 74.2655 21.2 73.8255 21.2ZM81.473 21.2C80.2463 21.2 79.3463 20.86 78.773 20.18C78.1997 19.5 77.913 18.44 77.913 17V10.6H80.653V16.46C80.653 17.3267 80.7863 17.96 81.053 18.36C81.333 18.7467 81.7797 18.94 82.393 18.94C82.8597 18.94 83.2663 18.8467 83.613 18.66C83.973 18.46 84.253 18.1933 84.453 17.86C84.653 17.5267 84.753 17.1467 84.753 16.72V10.6H87.513V21H84.893L84.853 19.78H84.813C84.3997 20.26 83.9197 20.62 83.373 20.86C82.8263 21.0867 82.193 21.2 81.473 21.2ZM89.6824 21V10.6H92.3224L92.3424 12.54H92.4024C92.7491 12.0733 93.1557 11.6867 93.6224 11.38C94.1024 11.06 94.6224 10.82 95.1824 10.66C95.7557 10.4867 96.3424 10.4 96.9424 10.4V12.74C96.1157 12.74 95.3624 12.8933 94.6824 13.2C94.0024 13.5067 93.4624 13.9267 93.0624 14.46C92.6624 14.98 92.4624 15.56 92.4624 16.2V21H89.6824ZM100.45 21.2C99.4229 21.2 98.6096 20.9133 98.0096 20.34C97.4229 19.7667 97.1296 19 97.1296 18.04C97.1296 16.84 97.5962 15.9133 98.5296 15.26C99.4762 14.6067 100.816 14.28 102.55 14.28H103.93C103.93 13.8133 103.87 13.4533 103.75 13.2C103.643 12.9467 103.45 12.7733 103.17 12.68C102.903 12.5733 102.516 12.52 102.01 12.52C101.343 12.52 100.65 12.5933 99.9296 12.74C99.2096 12.8733 98.5296 13.0667 97.8896 13.32L97.5496 11.2C98.2429 10.9467 99.0096 10.7533 99.8496 10.62C100.703 10.4733 101.55 10.4 102.39 10.4C103.456 10.4 104.296 10.5267 104.91 10.78C105.523 11.0333 105.97 11.46 106.25 12.06C106.53 12.6467 106.67 13.44 106.67 14.44V21H104.05L104.01 19.8H103.99C103.616 20.2267 103.103 20.5667 102.45 20.82C101.796 21.0733 101.13 21.2 100.45 21.2ZM101.45 19.12C101.916 19.12 102.336 19.04 102.71 18.88C103.083 18.72 103.376 18.5 103.59 18.22C103.816 17.9267 103.93 17.6067 103.93 17.26V16.08H102.95C101.87 16.08 101.063 16.22 100.53 16.5C99.9962 16.7667 99.7296 17.1867 99.7296 17.76C99.7296 18.1867 99.8762 18.52 100.17 18.76C100.476 19 100.903 19.12 101.45 19.12Z" fill="url(#paint0_linear_1_33)"/>
<defs>
<linearGradient id="paint0_linear_1_33" x1="13.2696" y1="37.5" x2="135.77" y2="12" gradientUnits="userSpaceOnUse">
<stop stop-color="#2BB32A"/>
<stop offset="1" stop-color="#80CB86"/>
</linearGradient>
</defs>
</svg>
